<?xml version="1.0" encoding="utf-8"?>
<!-- Generator: Adobe Illustrator 19.2.0, SVG Export Plug-In . SVG Version: 6.00 Build 0)  -->
<svg version="1.1" id="Layer_3" xmlns="http://www.w3.org/2000/svg" xmlns:xlink="http://www.w3.org/1999/xlink" x="0px" y="0px"
	 width="940px" height="1329.4px" viewBox="0 0 940 1329.4" style="enable-background:new 0 0 940 1329.4;" xml:space="preserve">
<style type="text/css">
	.st0{opacity:0.2;}
	.st1{fill:#525252;}
</style>
<g class="st0">
	<path class="st1" d="M126.9,972.7c6-8.2,14.2-18.3,26.1-29.6c14.5-14.2,28.6-21.1,41.2-21.4c11.6-0.6,23.3,4.1,33,14.2
		c10.1,10.4,14.8,21.4,14.8,33c0.3,15.7-8.5,32.4-22.7,46.3c-4.4,4.4-8.5,8.2-12.9,10.4l44.4,45.6l-14.8,14.2
		C236.1,1085.4,126.9,972.7,126.9,972.7z M194.9,1013.6c4.1-2.2,8.5-6,13.2-10.7c17.9-17.3,20.1-36.5,5-52.2
		c-14.5-15.1-32.4-12-48.8,3.8c-6.3,6.3-11,11.6-12.9,14.8L194.9,1013.6z M217.3,885.5c6-8.8,15.7-19.8,26.1-29.9
		c15.7-15.4,28.6-22.3,42.2-22.7c10.7-0.6,21.4,4.1,29.9,12.9c14.5,15.1,14.8,34.3,6.6,50l0.6,0.6c11.6-5.4,24.9-2.5,39,6.9
		c19.2,12.3,32.4,20.8,39.3,23L386,941.2c-5-1.3-17-8.8-34-19.8c-18.6-12.6-30.5-12.6-44.4,0l-13.8,13.5l47.8,49.4l-14.8,14.2
		L217.3,885.5L217.3,885.5z M282.4,923.3l15.1-14.5c15.7-15.4,17.3-33.7,4.7-46.6c-14.2-14.8-31.2-10.7-46.9,4.1
		c-7.2,6.9-11.6,12.6-13.2,15.4L282.4,923.3L282.4,923.3z M425,798.9l-44.4,43.1l40,41.2l49.4-47.8l12,12.3l-64.2,62.3L307,795.8
		l61.7-59.8l12,12.3l-46.9,45.3l34.9,36.2l44.4-43.1L425,798.9L425,798.9z M527.6,803.4l-147.9-78.1l16.1-15.4l72.4,39
		c19.8,10.7,37.5,20.5,53.5,30.8l0.3-0.3c-9.4-16.4-18.9-35.3-28-55.1l-35.6-75.2l15.7-15.4L544,787.6L527.6,803.4z M501.2,607.6
		L612,721.8L597.2,736L486.4,621.7L501.2,607.6L501.2,607.6z M645,585.9L600.6,629l40,41.2l49.4-47.8l12,12.3L637.8,697L527,582.7
		l61.7-59.8l12,12.3l-46.9,45.3l34.9,36.2l44.4-43.1L645,585.9L645,585.9z M741.3,596.6l-139.8-86.2l15.7-15.1l69.6,44.7
		c17.3,11,34,22.3,46.6,31.2l0.3-0.3c-9.1-13.2-18.6-30.2-29-48.8l-40.6-72.4l15.4-14.8l70.2,44.4c16.4,10.4,32.4,21.1,46,31.5
		l0.3-0.3c-9.8-14.8-18.9-30.5-29-48.5l-40.6-72.4l15.1-14.5L820,520.7l-15.4,14.8l-72.1-45.6c-17.6-11-30.8-20.1-43.4-30.2
		l-0.3,0.3c8.8,13.2,17.3,27.1,27.4,46l41.2,75.2L741.3,596.6L741.3,596.6z"/>
</g>
</svg>
