<svg xmlns="http://www.w3.org/2000/svg" viewBox="0 0 940 1329.4"><g opacity=".15"><path d="M714.4 651.1c-.1.2 0 .5.1.7l42.7 56.7c.1.2.4.3.6.3h.1c.3 0 .5-.2.6-.4l35-81.3c.1-.3.1-.6-.1-.8-.2-.2-.5-.3-.8-.2l-77.7 24.7c-.2-.1-.4 0-.5.3zm77.2-23.3l-33.9 78.6-41.3-54.8 75.2-23.8zM874.1 465.7l60.3-32.4c.2-.1.4-.4.4-.7 0-.3-.2-.5-.4-.7L913 421.8c-.3-.1-.7-.1-.9.2l-38.9 42.6c-.2.3-.3.7 0 1 .1.2.4.3.6.3.1-.1.2-.1.3-.2zm38.7-42.3l19.6 9.3-55.1 29.6 35.5-38.9zM772.7 519.7l36.2-3c.3 0 .6-.2.6-.5s0-.6-.2-.8L777 485.9c-.2-.2-.5-.2-.8-.1-.3.1-.4.3-.5.6l-3.8 32.5c0 .2 0 .4.2.6.1.1.3.2.6.2-.1 0-.1 0 0 0zM777 488l30 27.4-33.6 2.7L777 488zM460.1 25c-.1 0-.1 0 0 0-.1.1-.2.1-.2.2l-.1.1s0 .1-.1.1V26l35.4 103.6c.1.2.2.4.5.5h.2c.1 0 .3 0 .4-.1l49.7-32c.2-.1.3-.3.3-.6 0-.2-.1-.5-.3-.6l-81.8-69 116.1 42.1h.7c.1 0 .1-.1.2-.1l34.2-33.4 64.3-2.2 9.6 61.8-43.5 104.2c0 .1-.1.2-.1.3 0 .1 0 .2.1.3v.1c0 .1.1.1.2.2l54.5 34-60.4 60.3c-.2.2-.2.4-.2.6 0 .2.1.4.3.5l47.5 34.7c.1.1.3.1.4.1.1 0 .2 0 .3-.1.2-.1.4-.3.5-.6l13.5-95.1 52.6 1.1 65.9 43.4 67.2 34.4-108.6 26.2-16.8-51.3c-.1-.2-.2-.4-.5-.5-.2-.1-.5 0-.7.1L722 316.7c-.2.2-.3.4-.3.7 0 .3.2.5.4.6l56.2 24.2 21 66.7c.1.3.3.4.5.5h.2c.2 0 .4-.1.5-.2l89.2-93 12.5 49.2c.1.3.3.5.7.6h.1c.3 0 .6-.2.7-.4l36.4-76.4v-3.5l-36.8 77.4-12.2-48 49-33.4V280l-49.5 33.8-19.8-44.7 69.3 8.8v-1.5l-69.1-8.8 60-74.7 9.1 59.3v-9.9l-7.9-51.4c0-.3-.3-.5-.5-.6-.3-.1-.6 0-.8.3L869 267.5l-47.2 11.1-7.1-143 78.1-68-40.6 90.5c-.1.2-.1.5 0 .7.1.2.3.3.6.4l43.3 3.4h.1c.2 0 .4-.1.5-.2.2-.1.2-.3.2-.6l-1.3-96.6 44.2-23v-1.7L896.5 63l27-56.7 16.4 4.8V9.6L925 5.2l8.8-5.3H931l-7.6 4.5-3.6-4.4h-1.9l3.8 4.8-86.3 5.3-2-10.1h-1.5l2 9.9L792.7 0h-6.4l48.3 11.6 58.6 52.5-136.8 2.5-75.7-34L645.2 0H643l35.3 32.6-62.8 2.2L612 0h-1.5l3.7 35.2L582 66.7 599.6 0H598l-18 68.1-117.4-42.5L526.3 0h-4l-62.2 25c.1 0 0 0 0 0zm263.8 292.2l37.6-26.3 16.2 49.5-53.8-23.2zm76.5 90.1l-20.5-65.1 107.9-26.1-87.4 91.2zM869 269l19.6 44.2-65.3-33.5L869 269zM690.2 97.2l37.9 38.5-36.5 28.4-43.5 33.9 42.1-100.8zm-2.7 232.1l-45.8-33.5 58.9-58.9-13.1 92.4zm13.7-95.6l-53.6-33.4 80.3-62.5-26.7 95.9zm1.4.4l17.5-62.7 9.1-32.7 24.9 96.5-51.5-1.1zm27.6-97.5l82.5-.5-14.1 24.1-43.3 73.8-25.1-97.4zm90.1 141.5L756 235.7l55.6-94.8 1.8-3.1 6.9 140.3zm16.4-266.6L922 6.3 901.7 49l-6.9 14.6-58.1-52.1zm57.6 56.7l1.2 92.8-41.4-3.3 40.2-89.5zm-1.3-2.6l-78.9 68.7-56.4-66.2L893 65.6zm-136.6 3.2l56.1 65.8-82.1.5 26-66.3zm-27.5 65.7l-9.8-9.9-27.9-28.4 41.9-18.1 21.7-9.4-25.9 65.8zm25.4-67.2l-23.6 10.2-40.2 17.3-9.4-60.3 73.2 32.8zm-210.1 30l-48 30.9L462.1 28l82.1 69.3zM401.3 500.6c-.1.3 0 .6.2.8l33.9 27.6c.1.1.3.2.5.2h.2c.2 0 .4-.2.5-.4l15.9-30.4c.1-.2.1-.5 0-.8-.1-.2-.4-.4-.7-.3l-49.8 2.9c-.3-.1-.6.1-.7.4zm49.3-1.8l-14.9 28.5-31.7-25.8 46.6-2.7zM430.4 269.7l-39.3 4c-.3 0-.5.2-.6.4s-.1.5.1.7l21.7 33c.1.2.4.3.6.3h.1c.3 0 .5-.2.6-.4l17.6-37c.1-.2.1-.5-.1-.8-.2-.1-.4-.2-.7-.2zM412.8 306l-20.2-30.9 36.7-3.8-16.5 34.7zM313.6 145.1c.1 0 .2.1.3.1.1 0 .2 0 .4-.1l59.7-32.2c.3-.2.5-.5.4-.8-.1-.3-.4-.6-.7-.6l-71.7-1.8c-.2 0-.5.1-.6.3-.1.2-.2.5-.1.7l12 34c0 .2.1.3.3.4zm57.2-32.2l-56.5 30.4-11.4-32.1 67.9 1.7z"/><path d="M558.3 235h.2c.2 0 .5-.1.6-.3l71.7-106.2c.2-.3.2-.6 0-.8s-.5-.4-.8-.3l-77.3 17.2c-.4.1-.6.4-.6.8l5.6 89c0 .3.3.5.6.6zm-4.7-89.1l74.9-16.7L559.1 232l-5.5-86.1zM696.7 457h.3c.2 0 .3-.1.4-.1.2-.2.3-.4.3-.7l-3.1-43.4c0-.3-.2-.5-.4-.6-.2-.1-.5-.1-.7 0L647.9 437c-.3.1-.4.4-.4.7 0 .3.2.5.5.7l48.7 18.6zm-3.5-42.8l2.9 41-46.1-17.6 43.2-23.4zM533.8 290.9l-6.9 35.1c-.1.3.1.6.3.8.1.1.3.1.4.1.1 0 .3 0 .4-.1l78.2-53.2c.3-.2.4-.6.3-.9-.1-.3-.5-.5-.9-.4l-71.2 18.1c-.4 0-.6.2-.6.5zm68-16.2l-73.1 49.8 6.5-32.8 66.6-17z"/></g></svg>